<?xml version="1.0"?>
<svg xmlns="http://www.w3.org/2000/svg" xmlns:xlink="http://www.w3.org/1999/xlink" xmlns:svgjs="http://svgjs.com/svgjs" version="1.1" width="512" height="512" x="0" y="0" viewBox="0 0 512 512" style="enable-background:new 0 0 512 512" xml:space="preserve" class=""><g><path xmlns="http://www.w3.org/2000/svg" d="m120 112a16.019 16.019 0 0 0 -16 16v256a16 16 0 0 0 32 0v-256a16.019 16.019 0 0 0 -16-16z" fill="#ec2a63" data-original="#000000" style="" class=""/><path xmlns="http://www.w3.org/2000/svg" d="m152 240h208v32h-208z" fill="#ec2a63" data-original="#000000" style="" class=""/><path xmlns="http://www.w3.org/2000/svg" d="m40 240a16 16 0 0 0 0 32z" fill="#ec2a63" data-original="#000000" style="" class=""/><path xmlns="http://www.w3.org/2000/svg" d="m472 240v32a16 16 0 0 0 0-32z" fill="#ec2a63" data-original="#000000" style="" class=""/><path xmlns="http://www.w3.org/2000/svg" d="m456 360v-208a16 16 0 0 0 -32 0v208a16 16 0 0 0 32 0z" fill="#ec2a63" data-original="#000000" style="" class=""/><path xmlns="http://www.w3.org/2000/svg" d="m392 112a16.019 16.019 0 0 0 -16 16v256a16 16 0 0 0 32 0v-256a16.019 16.019 0 0 0 -16-16z" fill="#ec2a63" data-original="#000000" style="" class=""/><path xmlns="http://www.w3.org/2000/svg" d="m88 360v-208a16 16 0 0 0 -32 0v208a16 16 0 0 0 32 0z" fill="#ec2a63" data-original="#000000" style="" class=""/></g></svg>
