<?xml version="1.0"?>
<svg xmlns="http://www.w3.org/2000/svg" xmlns:xlink="http://www.w3.org/1999/xlink" xmlns:svgjs="http://svgjs.com/svgjs" version="1.1" width="512" height="512" x="0" y="0" viewBox="0 0 512 512" style="enable-background:new 0 0 512 512" xml:space="preserve" class=""><g><path xmlns="http://www.w3.org/2000/svg" d="M328,208.028a40.235,40.235,0,0,1,15.742-12.561A24.286,24.286,0,0,0,344,192a24,24,0,0,0-48,0A39.964,39.964,0,0,1,328,208.028Z" fill="#ec2a63" data-original="#000000" style=""/><path xmlns="http://www.w3.org/2000/svg" d="M111.33,95.33A56.135,56.135,0,0,0,64.67,48.67,56.135,56.135,0,0,0,111.33,95.33Z" fill="#ec2a63" data-original="#000000" style=""/><path xmlns="http://www.w3.org/2000/svg" d="M35.3,288A233.144,233.144,0,0,0,97.7,412.146C140,455.9,196.219,480,256,480s116-24.1,158.3-67.854A233.144,233.144,0,0,0,476.7,288Z" fill="#ec2a63" data-original="#000000" style=""/><path xmlns="http://www.w3.org/2000/svg" d="M144,232a24.043,24.043,0,0,0,1.376,8h45.248A24,24,0,1,0,144,232Z" fill="#ec2a63" data-original="#000000" style=""/><path xmlns="http://www.w3.org/2000/svg" d="M478.819,272q.783-7.946,1.051-16H32.13q.261,8.052,1.051,16Z" fill="#ec2a63" data-original="#000000" style=""/><path xmlns="http://www.w3.org/2000/svg" d="M284,174.577a40.233,40.233,0,0,1,9.956-12.9A24,24,0,1,0,248,152,40.048,40.048,0,0,1,284,174.577Z" fill="#ec2a63" data-original="#000000" style=""/><path xmlns="http://www.w3.org/2000/svg" d="M272,232a24.043,24.043,0,0,0,1.376,8h45.248A24,24,0,1,0,272,232Z" fill="#ec2a63" data-original="#000000" style=""/><path xmlns="http://www.w3.org/2000/svg" d="M336,232a24.043,24.043,0,0,0,1.376,8h45.248A24,24,0,1,0,336,232Z" fill="#ec2a63" data-original="#000000" style=""/><path xmlns="http://www.w3.org/2000/svg" d="M232,192a39.964,39.964,0,0,1,32,16.028,40.341,40.341,0,0,1,5.956-6.35A24,24,0,1,0,224,192c0,.268.016.534.025.8A40.08,40.08,0,0,1,232,192Z" fill="#ec2a63" data-original="#000000" style=""/><path xmlns="http://www.w3.org/2000/svg" d="M209.376,240h45.248a24,24,0,1,0-45.248,0Z" fill="#ec2a63" data-original="#000000" style=""/><path xmlns="http://www.w3.org/2000/svg" d="M358.791,182.241C373.588,178.6,384,169.747,384,160a8,8,0,0,1,16,0c0,14.465-10.539,27.209-26.826,34.24A39.967,39.967,0,0,1,399.188,240h60.695a71.861,71.861,0,0,0-8-63.913c-11.8-17.587-16.345-37-12.808-54.662a48.69,48.69,0,0,0-39.439-56.8,46.275,46.275,0,0,0-6.847-.622Q392.391,64,392,64a48.6,48.6,0,0,0-8.524.762l.007.053-.008-.061A48.023,48.023,0,0,0,344,112a48.213,48.213,0,0,0,.792,8.709,71.166,71.166,0,0,1-3.017,37.764A40.124,40.124,0,0,1,358.791,182.241Z" fill="#ec2a63" data-original="#000000" style=""/><path xmlns="http://www.w3.org/2000/svg" d="M360,32c3.419,0,13.679.012,19.919,17.14a64.866,64.866,0,0,1,13.121-1.132c1.141.018,2.277.074,3.409.153C391.529,31.818,380.792,16,360,16a8,8,0,0,0,0,16Z" fill="#ec2a63" data-original="#000000" style=""/><path xmlns="http://www.w3.org/2000/svg" d="M128.812,240A39.986,39.986,0,0,1,200,208.028a40.346,40.346,0,0,1,7.549-7.652A80.994,80.994,0,0,0,208,192a80.086,80.086,0,0,0-79.675-79.992c-.109,0-.216-.008-.325-.008A80,80,0,0,0,64,240Z" fill="#ec2a63" data-original="#000000" style=""/><path xmlns="http://www.w3.org/2000/svg" d="M130.4,96.031C133.407,80.292,139.721,64,152,64a8,8,0,0,0,0-16c-11.974,0-27.9,6.6-35.761,38.06-.931,3.725-1.657,7.435-2.224,10.962A96.288,96.288,0,0,1,128,96Q129.2,96,130.4,96.031Z" fill="#ec2a63" data-original="#000000" style=""/></g></svg>
